<mxfile host="app.diagrams.net" modified="2022-10-08T03:17:50.658Z" agent="5.0 (Windows)" etag="NSCopnPle1Bm3VX2spmq" version="20.3.3" type="github">
  <diagram id="m0d1w0dnPzrAdu5cx1w1" name="Page-1">
    <mxGraphModel dx="1422" dy="1880" grid="1" gridSize="10" guides="1" tooltips="1" connect="1" arrows="1" fold="1" page="1" pageScale="1" pageWidth="850" pageHeight="1100" math="0" shadow="0">
      <root>
        <mxCell id="0" />
        <mxCell id="1" parent="0" />
        <mxCell id="ViDCTkydljK_0g42NZA9-40" value="" style="rounded=0;whiteSpace=wrap;html=1;dashed=1;fillColor=none;strokeWidth=2;" vertex="1" parent="1">
          <mxGeometry x="245" y="180" width="240" height="380" as="geometry" />
        </mxCell>
        <mxCell id="ViDCTkydljK_0g42NZA9-15" value="" style="rounded=0;whiteSpace=wrap;html=1;dashed=1;fillColor=none;strokeWidth=2;" vertex="1" parent="1">
          <mxGeometry x="520" y="60" width="800" height="680" as="geometry" />
        </mxCell>
        <mxCell id="ViDCTkydljK_0g42NZA9-27" value="" style="rounded=1;whiteSpace=wrap;html=1;dashed=1;strokeWidth=1;fillColor=none;dashPattern=1 2;strokeColor=#666666;" vertex="1" parent="1">
          <mxGeometry x="800" y="210" width="180" height="240" as="geometry" />
        </mxCell>
        <mxCell id="ViDCTkydljK_0g42NZA9-5" value="&lt;div&gt;用户网络&lt;/div&gt;" style="rounded=1;whiteSpace=wrap;html=1;fillColor=none;" vertex="1" parent="1">
          <mxGeometry x="60" y="-50" width="120" height="60" as="geometry" />
        </mxCell>
        <mxCell id="ViDCTkydljK_0g42NZA9-6" value="亚马逊aws" style="rounded=1;whiteSpace=wrap;html=1;fillColor=none;" vertex="1" parent="1">
          <mxGeometry x="960" y="-50" width="120" height="60" as="geometry" />
        </mxCell>
        <mxCell id="ViDCTkydljK_0g42NZA9-8" value="" style="rounded=0;whiteSpace=wrap;html=1;dashed=1;fillColor=none;strokeWidth=2;" vertex="1" parent="1">
          <mxGeometry x="45" y="120" width="150" height="520" as="geometry" />
        </mxCell>
        <mxCell id="ViDCTkydljK_0g42NZA9-11" value="&lt;div&gt;浏览器/客户端&lt;/div&gt;" style="rounded=0;whiteSpace=wrap;html=1;dashed=1;dashPattern=1 4;fillColor=#dae8fc;strokeColor=none;" vertex="1" parent="1">
          <mxGeometry x="60" y="190" width="120" height="60" as="geometry" />
        </mxCell>
        <mxCell id="ViDCTkydljK_0g42NZA9-12" value="&lt;div&gt;浏览器/客户端&lt;/div&gt;" style="rounded=0;whiteSpace=wrap;html=1;dashed=1;dashPattern=1 4;fillColor=#dae8fc;strokeColor=none;" vertex="1" parent="1">
          <mxGeometry x="60" y="300" width="120" height="60" as="geometry" />
        </mxCell>
        <mxCell id="ViDCTkydljK_0g42NZA9-13" value="&lt;div&gt;浏览器/客户端&lt;/div&gt;" style="rounded=0;whiteSpace=wrap;html=1;dashed=1;dashPattern=1 4;fillColor=#dae8fc;strokeColor=none;" vertex="1" parent="1">
          <mxGeometry x="60" y="410" width="120" height="60" as="geometry" />
        </mxCell>
        <mxCell id="ViDCTkydljK_0g42NZA9-16" value="" style="shape=flexArrow;endArrow=classic;startArrow=classic;html=1;rounded=0;" edge="1" parent="1">
          <mxGeometry width="100" height="100" relative="1" as="geometry">
            <mxPoint x="310" y="254.5" as="sourcePoint" />
            <mxPoint x="420" y="254.5" as="targetPoint" />
          </mxGeometry>
        </mxCell>
        <mxCell id="ViDCTkydljK_0g42NZA9-17" value="" style="shape=flexArrow;endArrow=classic;startArrow=classic;html=1;rounded=0;" edge="1" parent="1">
          <mxGeometry width="100" height="100" relative="1" as="geometry">
            <mxPoint x="310" y="359.5" as="sourcePoint" />
            <mxPoint x="420" y="359.5" as="targetPoint" />
          </mxGeometry>
        </mxCell>
        <mxCell id="ViDCTkydljK_0g42NZA9-18" value="" style="shape=flexArrow;endArrow=classic;startArrow=classic;html=1;rounded=0;" edge="1" parent="1">
          <mxGeometry width="100" height="100" relative="1" as="geometry">
            <mxPoint x="310" y="469.5" as="sourcePoint" />
            <mxPoint x="420" y="469.5" as="targetPoint" />
          </mxGeometry>
        </mxCell>
        <mxCell id="ViDCTkydljK_0g42NZA9-21" value="CDN" style="rounded=0;whiteSpace=wrap;html=1;dashed=1;dashPattern=1 4;fillColor=#dae8fc;strokeColor=none;" vertex="1" parent="1">
          <mxGeometry x="560" y="140" width="120" height="60" as="geometry" />
        </mxCell>
        <mxCell id="ViDCTkydljK_0g42NZA9-22" value="负载均衡" style="rounded=0;whiteSpace=wrap;html=1;dashed=1;dashPattern=1 4;fillColor=#dae8fc;strokeColor=none;" vertex="1" parent="1">
          <mxGeometry x="550" y="380" width="120" height="60" as="geometry" />
        </mxCell>
        <mxCell id="ViDCTkydljK_0g42NZA9-23" value="&lt;div&gt;服务器实例&lt;/div&gt;" style="rounded=0;whiteSpace=wrap;html=1;dashed=1;dashPattern=1 4;fillColor=#dae8fc;strokeColor=none;" vertex="1" parent="1">
          <mxGeometry x="830" y="240" width="120" height="30" as="geometry" />
        </mxCell>
        <mxCell id="ViDCTkydljK_0g42NZA9-25" value="&lt;div&gt;服务器实例&lt;/div&gt;" style="rounded=0;whiteSpace=wrap;html=1;dashed=1;dashPattern=1 4;fillColor=#dae8fc;strokeColor=none;" vertex="1" parent="1">
          <mxGeometry x="830" y="290" width="120" height="30" as="geometry" />
        </mxCell>
        <mxCell id="ViDCTkydljK_0g42NZA9-26" value="&lt;div&gt;服务器实例&lt;/div&gt;" style="rounded=0;whiteSpace=wrap;html=1;dashed=1;dashPattern=1 4;fillColor=#dae8fc;strokeColor=none;" vertex="1" parent="1">
          <mxGeometry x="830" y="340" width="120" height="30" as="geometry" />
        </mxCell>
        <mxCell id="ViDCTkydljK_0g42NZA9-29" value="......" style="rounded=0;whiteSpace=wrap;html=1;dashed=1;dashPattern=1 4;fillColor=#dae8fc;strokeColor=none;" vertex="1" parent="1">
          <mxGeometry x="830" y="385" width="120" height="30" as="geometry" />
        </mxCell>
        <mxCell id="ViDCTkydljK_0g42NZA9-30" value="" style="shape=flexArrow;endArrow=classic;startArrow=classic;html=1;rounded=0;entryX=0;entryY=0.25;entryDx=0;entryDy=0;exitX=1;exitY=0.75;exitDx=0;exitDy=0;" edge="1" parent="1" source="ViDCTkydljK_0g42NZA9-21" target="ViDCTkydljK_0g42NZA9-27">
          <mxGeometry width="100" height="100" relative="1" as="geometry">
            <mxPoint x="690" y="170" as="sourcePoint" />
            <mxPoint x="800" y="170" as="targetPoint" />
          </mxGeometry>
        </mxCell>
        <mxCell id="ViDCTkydljK_0g42NZA9-31" value="" style="shape=flexArrow;endArrow=classic;startArrow=classic;html=1;rounded=0;entryX=0;entryY=0.75;entryDx=0;entryDy=0;exitX=1;exitY=0.25;exitDx=0;exitDy=0;" edge="1" parent="1" source="ViDCTkydljK_0g42NZA9-22" target="ViDCTkydljK_0g42NZA9-27">
          <mxGeometry width="100" height="100" relative="1" as="geometry">
            <mxPoint x="690" y="339.5" as="sourcePoint" />
            <mxPoint x="800" y="339.5" as="targetPoint" />
          </mxGeometry>
        </mxCell>
        <mxCell id="ViDCTkydljK_0g42NZA9-32" value="" style="rounded=1;whiteSpace=wrap;html=1;dashed=1;strokeWidth=1;fillColor=none;dashPattern=1 2;strokeColor=#666666;" vertex="1" parent="1">
          <mxGeometry x="800" y="500" width="180" height="100" as="geometry" />
        </mxCell>
        <mxCell id="ViDCTkydljK_0g42NZA9-33" value="IM服务" style="rounded=0;whiteSpace=wrap;html=1;dashed=1;dashPattern=1 4;fillColor=#dae8fc;strokeColor=none;" vertex="1" parent="1">
          <mxGeometry x="830" y="545" width="120" height="30" as="geometry" />
        </mxCell>
        <mxCell id="ViDCTkydljK_0g42NZA9-34" value="" style="shape=flexArrow;endArrow=classic;startArrow=classic;html=1;rounded=0;entryX=0;entryY=0.25;entryDx=0;entryDy=0;exitX=1;exitY=0.75;exitDx=0;exitDy=0;" edge="1" parent="1" source="ViDCTkydljK_0g42NZA9-22" target="ViDCTkydljK_0g42NZA9-32">
          <mxGeometry width="100" height="100" relative="1" as="geometry">
            <mxPoint x="690" y="350" as="sourcePoint" />
            <mxPoint x="800" y="350" as="targetPoint" />
          </mxGeometry>
        </mxCell>
        <mxCell id="ViDCTkydljK_0g42NZA9-35" value="" style="rounded=1;whiteSpace=wrap;html=1;dashed=1;strokeWidth=1;fillColor=none;dashPattern=1 2;strokeColor=#666666;" vertex="1" parent="1">
          <mxGeometry x="800" y="80" width="180" height="80" as="geometry" />
        </mxCell>
        <mxCell id="ViDCTkydljK_0g42NZA9-36" value="S3" style="rounded=0;whiteSpace=wrap;html=1;dashed=1;dashPattern=1 4;fillColor=#dae8fc;strokeColor=none;" vertex="1" parent="1">
          <mxGeometry x="830" y="100" width="120" height="30" as="geometry" />
        </mxCell>
        <mxCell id="ViDCTkydljK_0g42NZA9-37" value="" style="shape=flexArrow;endArrow=classic;startArrow=classic;html=1;rounded=0;entryX=0;entryY=0.5;entryDx=0;entryDy=0;exitX=1;exitY=0.25;exitDx=0;exitDy=0;" edge="1" parent="1" source="ViDCTkydljK_0g42NZA9-21" target="ViDCTkydljK_0g42NZA9-35">
          <mxGeometry width="100" height="100" relative="1" as="geometry">
            <mxPoint x="690" y="150" as="sourcePoint" />
            <mxPoint x="800" y="150" as="targetPoint" />
          </mxGeometry>
        </mxCell>
        <mxCell id="ViDCTkydljK_0g42NZA9-39" value="DNS" style="rounded=1;whiteSpace=wrap;html=1;fillColor=none;" vertex="1" parent="1">
          <mxGeometry x="305" y="-50" width="120" height="60" as="geometry" />
        </mxCell>
        <mxCell id="ViDCTkydljK_0g42NZA9-41" value="......" style="rounded=0;whiteSpace=wrap;html=1;dashed=1;dashPattern=1 4;fillColor=#dae8fc;strokeColor=none;" vertex="1" parent="1">
          <mxGeometry x="60" y="510" width="120" height="60" as="geometry" />
        </mxCell>
      </root>
    </mxGraphModel>
  </diagram>
</mxfile>
